<?xml version="1.0" encoding="utf-8"?>
<svg version="1.1" id="Layer_1" x="0px" y="0px" width="100%" viewBox="0 0 576 368" enable-background="new 0 0 576 368" xmlns="http://www.w3.org/2000/svg">
  <path opacity="1.000000" stroke="none" d=" M134.311234,106.307129 C139.155945,101.495964 143.895706,97.059631 148.273712,92.291168 C151.487823,88.790413 153.855118,88.871605 157.223709,92.291397 C177.430466,112.805183 197.812546,133.146347 218.153503,153.527771 C223.557541,158.942566 228.990021,164.330017 234.475525,169.662033 C237.130844,172.243057 238.365616,175.154877 238.349152,178.969864 C238.243546,203.450470 238.215393,227.932770 238.430496,252.412170 C238.470398,256.952484 236.985825,258.585510 232.524292,258.743713 C217.039993,259.292633 201.567596,258.703186 186.090073,258.665009 C162.460861,258.606720 138.829422,258.793549 115.202179,259.114746 C110.123863,259.183777 106.256744,257.625977 102.850204,253.949738 C99.237892,250.051483 95.510078,246.195480 91.417580,242.825089 C87.279274,239.416962 85.837692,235.236435 86.108040,230.185959 C87.255646,208.747986 86.609756,187.275970 86.144638,165.862320 C85.931801,156.063629 89.774094,150.244720 96.169907,144.161682 C109.062225,131.899826 121.453316,119.110985 134.311234,106.307129 M116.159744,198.500168 C116.146431,212.823761 116.117538,227.147385 116.127182,241.470963 C116.131248,247.520935 117.036011,248.602768 122.353256,248.601715 C155.158401,248.595200 187.964310,248.425262 220.767914,248.633453 C226.076752,248.667145 227.161240,246.729172 227.140045,241.970352 C227.054077,222.653870 227.227646,203.335297 227.446823,184.019104 C227.500961,179.248825 225.235458,175.990387 222.020065,172.808060 C206.883667,157.827240 191.857193,142.734818 176.854630,127.619591 C172.523315,123.255753 171.425934,123.098030 167.138504,127.386795 C154.188721,140.340591 141.885605,154.030441 128.126419,166.055771 C118.018021,174.890335 114.103600,184.712967 116.159744,198.500168 M118.261208,138.740677 C113.329720,143.691864 108.409889,148.654739 103.462036,153.589508 C100.811531,156.232986 100.787552,158.737061 103.675705,161.219360 C104.811058,162.195160 105.978729,163.166763 106.945000,164.299515 C109.685020,167.511597 111.947281,167.029404 114.751404,164.092621 C121.069229,157.475876 127.678947,151.137650 134.177200,144.693451 C142.913406,136.029922 151.614853,127.330612 160.424301,118.742119 C162.795670,116.430222 163.191116,114.377670 160.722687,111.983627 C159.648575,110.941872 158.644836,109.821541 157.669296,108.685234 C154.571503,105.076927 151.795471,104.845322 148.247696,108.533951 C138.575241,118.590446 128.601562,128.357208 118.261208,138.740677 M97.375122,179.795486 C98.189880,196.245285 97.977547,212.695251 97.514603,229.150711 C97.388245,233.642242 100.252060,236.198776 104.282150,238.206024 C104.533234,237.161484 104.809380,236.547058 104.809998,235.932388 C104.828377,217.626526 104.849808,199.320557 104.790199,181.014847 C104.777725,177.183456 102.168854,175.259125 98.979790,173.671509 C97.393173,175.319061 97.495438,177.172485 97.375122,179.795486 z" style="fill: rgb(250, 198, 56);"/>
  <path fill="#000000" opacity="1.000000" stroke="none" d=" M286.019836,202.999985 C286.011230,190.336853 285.941315,178.173325 286.021057,166.010773 C286.053375,161.082382 284.677887,157.537598 279.118713,156.848541 C277.500244,156.647949 275.718384,156.040176 275.943970,153.756042 C276.118347,151.990723 277.536804,151.726440 278.890594,151.757614 C295.019257,152.128906 311.248749,150.184616 327.259338,152.746399 C339.593170,154.719864 346.561676,162.202026 348.182281,173.175049 C349.935699,185.047516 344.814911,195.472061 334.215088,201.187378 C325.673859,205.792694 316.713257,207.313400 307.255951,204.244659 C306.027496,203.846054 304.804962,203.083267 302.731506,204.043182 C302.240662,211.054596 301.650970,218.412186 303.075928,225.741730 C303.690033,228.900726 306.260620,230.292923 309.306519,230.633255 C311.090973,230.832642 312.810394,231.162094 312.865662,233.298264 C312.924255,235.561905 311.019897,235.902390 309.338654,235.911591 C299.343872,235.966309 289.348297,235.966385 279.353760,235.887512 C277.672302,235.874268 275.869507,235.440887 275.919250,233.149811 C275.962067,231.176849 277.484131,230.840714 279.061218,230.676346 C284.305908,230.129700 285.986969,226.698700 286.010010,221.994537 C286.040192,215.829803 286.018250,209.664841 286.019836,202.999985 M302.349548,185.446625 C302.354767,187.945648 302.355835,190.444672 302.366760,192.943680 C302.372772,194.316864 302.583984,195.534958 303.939087,196.363312 C310.797943,200.556030 323.517090,197.269089 327.429413,190.197128 C331.137817,183.493866 330.722382,176.347794 328.945923,169.328766 C327.036316,161.783859 322.185638,158.382797 314.373322,158.241272 C312.541168,158.208084 310.707947,158.200455 308.875580,158.218567 C303.033325,158.276337 302.389740,158.920807 302.358459,164.968658 C302.324829,171.465973 302.349884,177.963623 302.349548,185.446625 z"/>
  <path fill="#000000" opacity="1.000000" stroke="none" d=" M464.833252,229.533203 C474.541260,230.465805 480.276062,228.112381 482.288483,222.614090 C484.519409,216.518631 481.995361,210.877701 474.110779,205.629562 C468.159882,201.668488 461.787201,198.342468 455.822449,194.400589 C448.281158,189.416809 441.920563,183.511017 441.528107,173.481537 C441.256226,166.532089 443.916931,160.999588 449.548218,157.256699 C462.039795,148.954025 475.359131,148.361877 488.974426,154.202286 C493.670319,156.216629 497.483093,168.852066 494.865082,173.240891 C493.206665,176.021057 491.198029,175.491653 489.347931,173.123795 C486.584717,169.587250 483.920929,165.946625 480.878845,162.661377 C477.471008,158.981094 473.198303,156.929733 467.961334,157.326263 C459.643158,157.956055 454.869995,166.093689 458.478638,173.644989 C460.829895,178.565125 465.201752,181.348816 469.657990,183.997772 C475.946045,187.735611 482.766449,190.537369 488.692200,194.922684 C492.645599,197.848389 495.883209,201.272675 497.828522,205.895615 C502.056335,215.942688 499.278168,225.970886 489.783691,231.362259 C474.934052,239.794479 459.840240,238.644150 444.996552,231.013077 C440.460754,228.681244 440.511627,223.907898 439.786072,219.729065 C439.392487,217.462357 439.644348,215.079422 439.649261,212.748993 C439.653168,210.885559 439.660706,208.955643 441.969269,208.323456 C444.164337,207.722305 444.819153,209.582809 445.725647,210.883575 C447.817230,213.884781 449.693298,217.044525 451.901703,219.954041 C455.169159,224.258911 459.094421,227.812820 464.833252,229.533203 z"/>
  <path fill="#000000" opacity="1.000000" stroke="none" d=" M379.005798,170.038605 C372.393036,185.488388 373.134583,200.612473 379.627136,215.365417 C387.277374,232.748962 405.701416,234.836182 417.587738,219.999786 C420.095673,216.869431 422.261566,213.532227 423.967529,209.891754 C424.655762,208.423065 425.215118,206.502228 427.411682,206.986908 C429.309784,207.405731 430.564850,208.770157 431.130676,210.671188 C432.452637,215.112762 428.350830,227.162613 424.627747,229.802643 C410.261292,239.989807 384.914734,239.245346 371.018951,228.232040 C360.875031,220.192352 356.968964,209.356934 356.399902,196.773849 C355.512817,177.159561 366.391479,159.212845 383.955750,153.055817 C396.764496,148.565781 409.535126,149.787613 421.774445,155.599609 C426.529327,157.857544 431.089111,167.839371 430.068481,173.166412 C429.699860,175.090378 428.569122,176.513870 426.604156,177.044189 C424.532715,177.603226 423.576233,176.078903 422.662323,174.691544 C419.512695,169.910324 415.698486,165.746811 410.982452,162.507660 C398.165894,153.704712 387.106873,156.238937 379.005798,170.038605 z"/>
  <path opacity="1.000000" stroke="none" d=" M207.781509,91.602989 C214.474091,87.958496 220.981201,87.094429 227.622604,90.558662 C235.304947,94.565872 239.364822,102.378120 237.754791,110.909660 C237.106461,114.345238 238.040298,116.628250 240.393539,118.870964 C244.607269,122.886703 248.663803,127.066818 252.834610,131.128357 C255.298950,133.528122 257.303864,136.125977 256.990387,139.801712 C256.789490,142.157501 257.698029,145.406418 254.266510,145.925919 C251.365509,146.365128 248.581833,146.791489 245.840088,143.626205 C240.563507,137.534515 234.480789,132.079208 227.579132,127.724213 C225.595306,126.472389 223.347748,127.241051 221.217804,127.325195 C209.639420,127.782593 201.905716,122.039909 199.673798,110.904587 C198.077637,102.940979 201.133057,96.635765 207.781509,91.602989 M217.586716,104.130356 C218.085358,101.429626 216.503494,100.132210 214.234039,99.629829 C212.836472,99.320465 211.704681,100.257462 211.135925,101.541779 C210.387726,103.231339 210.769073,104.858963 212.251450,105.905556 C214.225632,107.299416 215.940781,106.586227 217.586716,104.130356 z" style="fill: rgb(250, 198, 56);"/>
  <path opacity="1.000000" stroke="none" d=" M177.990479,182.614395 C182.818344,182.605362 187.156723,182.759445 191.475662,182.536606 C194.691864,182.370651 196.123459,183.603806 196.113220,186.779678 C196.070251,200.102264 196.045761,213.424957 196.048187,226.747620 C196.048767,229.908386 194.522934,231.191971 191.413330,231.184158 C178.090576,231.150635 164.767410,231.175491 151.444839,231.254532 C148.461960,231.272232 147.105179,229.779388 147.092117,227.023270 C147.028183,213.536179 147.043213,200.048752 147.011108,186.561478 C147.002838,183.083221 149.205978,182.568985 152.011993,182.585266 C160.505325,182.634552 168.999069,182.610916 177.990479,182.614395 M173.483902,219.899490 C175.645859,219.889679 177.814743,219.765457 179.968216,219.895859 C183.534454,220.111801 185.117264,218.763489 184.953278,214.988892 C184.715317,209.510818 184.740051,204.010422 184.923294,198.528595 C185.057312,194.519150 183.179047,193.138489 179.476517,193.409897 C176.660095,193.616348 173.838348,193.883392 171.018570,193.888092 C157.773743,193.910172 157.382675,193.915787 158.566681,207.275452 C159.764343,220.789398 156.186737,219.848648 171.504135,219.897064 C171.836761,219.898117 172.169388,219.898239 173.483902,219.899490 z" style="fill: rgb(250, 198, 56);"/>
</svg>