<?xml version="1.0" encoding="utf-8"?>
<svg version="1.1" id="Layer_1" x="0px" y="0px" width="100%" viewBox="85.779 88.267 419.744 170.028" enable-background="new 0 0 576 368" xmlns="http://www.w3.org/2000/svg" xmlns:bx="https://boxy-svg.com">
  <defs>
    <style bx:fonts="Anuphan">@import url(https://fonts.googleapis.com/css2?family=Anuphan%3Aital%2Cwght%400%2C100%3B0%2C200%3B0%2C300%3B0%2C400%3B0%2C500%3B0%2C600%3B0%2C700&amp;display=swap);</style>
  </defs>
  <path opacity="1.000000" stroke="none" d=" M134.311234,106.307129 C139.155945,101.495964 143.895706,97.059631 148.273712,92.291168 C151.487823,88.790413 153.855118,88.871605 157.223709,92.291397 C177.430466,112.805183 197.812546,133.146347 218.153503,153.527771 C223.557541,158.942566 228.990021,164.330017 234.475525,169.662033 C237.130844,172.243057 238.365616,175.154877 238.349152,178.969864 C238.243546,203.450470 238.215393,227.932770 238.430496,252.412170 C238.470398,256.952484 236.985825,258.585510 232.524292,258.743713 C217.039993,259.292633 201.567596,258.703186 186.090073,258.665009 C162.460861,258.606720 138.829422,258.793549 115.202179,259.114746 C110.123863,259.183777 106.256744,257.625977 102.850204,253.949738 C99.237892,250.051483 95.510078,246.195480 91.417580,242.825089 C87.279274,239.416962 85.837692,235.236435 86.108040,230.185959 C87.255646,208.747986 86.609756,187.275970 86.144638,165.862320 C85.931801,156.063629 89.774094,150.244720 96.169907,144.161682 C109.062225,131.899826 121.453316,119.110985 134.311234,106.307129 M116.159744,198.500168 C116.146431,212.823761 116.117538,227.147385 116.127182,241.470963 C116.131248,247.520935 117.036011,248.602768 122.353256,248.601715 C155.158401,248.595200 187.964310,248.425262 220.767914,248.633453 C226.076752,248.667145 227.161240,246.729172 227.140045,241.970352 C227.054077,222.653870 227.227646,203.335297 227.446823,184.019104 C227.500961,179.248825 225.235458,175.990387 222.020065,172.808060 C206.883667,157.827240 191.857193,142.734818 176.854630,127.619591 C172.523315,123.255753 171.425934,123.098030 167.138504,127.386795 C154.188721,140.340591 141.885605,154.030441 128.126419,166.055771 C118.018021,174.890335 114.103600,184.712967 116.159744,198.500168 M118.261208,138.740677 C113.329720,143.691864 108.409889,148.654739 103.462036,153.589508 C100.811531,156.232986 100.787552,158.737061 103.675705,161.219360 C104.811058,162.195160 105.978729,163.166763 106.945000,164.299515 C109.685020,167.511597 111.947281,167.029404 114.751404,164.092621 C121.069229,157.475876 127.678947,151.137650 134.177200,144.693451 C142.913406,136.029922 151.614853,127.330612 160.424301,118.742119 C162.795670,116.430222 163.191116,114.377670 160.722687,111.983627 C159.648575,110.941872 158.644836,109.821541 157.669296,108.685234 C154.571503,105.076927 151.795471,104.845322 148.247696,108.533951 C138.575241,118.590446 128.601562,128.357208 118.261208,138.740677 M97.375122,179.795486 C98.189880,196.245285 97.977547,212.695251 97.514603,229.150711 C97.388245,233.642242 100.252060,236.198776 104.282150,238.206024 C104.533234,237.161484 104.809380,236.547058 104.809998,235.932388 C104.828377,217.626526 104.849808,199.320557 104.790199,181.014847 C104.777725,177.183456 102.168854,175.259125 98.979790,173.671509 C97.393173,175.319061 97.495438,177.172485 97.375122,179.795486 z" style="fill: rgb(250, 198, 56);"/>
  <path opacity="1.000000" stroke="none" d=" M207.781509,91.602989 C214.474091,87.958496 220.981201,87.094429 227.622604,90.558662 C235.304947,94.565872 239.364822,102.378120 237.754791,110.909660 C237.106461,114.345238 238.040298,116.628250 240.393539,118.870964 C244.607269,122.886703 248.663803,127.066818 252.834610,131.128357 C255.298950,133.528122 257.303864,136.125977 256.990387,139.801712 C256.789490,142.157501 257.698029,145.406418 254.266510,145.925919 C251.365509,146.365128 248.581833,146.791489 245.840088,143.626205 C240.563507,137.534515 234.480789,132.079208 227.579132,127.724213 C225.595306,126.472389 223.347748,127.241051 221.217804,127.325195 C209.639420,127.782593 201.905716,122.039909 199.673798,110.904587 C198.077637,102.940979 201.133057,96.635765 207.781509,91.602989 M217.586716,104.130356 C218.085358,101.429626 216.503494,100.132210 214.234039,99.629829 C212.836472,99.320465 211.704681,100.257462 211.135925,101.541779 C210.387726,103.231339 210.769073,104.858963 212.251450,105.905556 C214.225632,107.299416 215.940781,106.586227 217.586716,104.130356 z" style="fill: rgb(250, 198, 56);"/>
  <path opacity="1.000000" stroke="none" d=" M177.990479,182.614395 C182.818344,182.605362 187.156723,182.759445 191.475662,182.536606 C194.691864,182.370651 196.123459,183.603806 196.113220,186.779678 C196.070251,200.102264 196.045761,213.424957 196.048187,226.747620 C196.048767,229.908386 194.522934,231.191971 191.413330,231.184158 C178.090576,231.150635 164.767410,231.175491 151.444839,231.254532 C148.461960,231.272232 147.105179,229.779388 147.092117,227.023270 C147.028183,213.536179 147.043213,200.048752 147.011108,186.561478 C147.002838,183.083221 149.205978,182.568985 152.011993,182.585266 C160.505325,182.634552 168.999069,182.610916 177.990479,182.614395 M173.483902,219.899490 C175.645859,219.889679 177.814743,219.765457 179.968216,219.895859 C183.534454,220.111801 185.117264,218.763489 184.953278,214.988892 C184.715317,209.510818 184.740051,204.010422 184.923294,198.528595 C185.057312,194.519150 183.179047,193.138489 179.476517,193.409897 C176.660095,193.616348 173.838348,193.883392 171.018570,193.888092 C157.773743,193.910172 157.382675,193.915787 158.566681,207.275452 C159.764343,220.789398 156.186737,219.848648 171.504135,219.897064 C171.836761,219.898117 172.169388,219.898239 173.483902,219.899490 z" style="fill: rgb(250, 198, 56);"/>
  <text style="font-family: sans-serif; font-size: 120px; white-space: pre;" x="262.248" y="236.244">PCS</text>
</svg>