<?xml version="1.0" encoding="utf-8"?>
<svg version="1.1" id="Layer_1" x="0px" y="0px" width="100%" viewBox="0 0 576 368" enable-background="new 0 0 576 368" xmlns="http://www.w3.org/2000/svg">
  <path opacity="1.000000" stroke="none" d="M 197.774 63.037 C 202.619 58.226 207.359 53.79 211.737 49.021 C 214.951 45.521 217.318 45.602 220.687 49.022 C 240.894 69.535 261.276 89.877 281.617 110.258 C 287.021 115.673 292.453 121.06 297.939 126.392 C 300.594 128.973 301.829 131.885 301.812 135.7 C 301.707 160.181 301.679 184.663 301.894 209.142 C 301.934 213.683 300.449 215.316 295.988 215.474 C 280.503 216.023 265.031 215.433 249.553 215.395 C 225.924 215.337 202.293 215.524 178.665 215.845 C 173.587 215.914 169.72 214.356 166.313 210.68 C 162.701 206.782 158.973 202.926 154.881 199.555 C 150.743 196.147 149.301 191.967 149.571 186.916 C 150.719 165.478 150.073 144.006 149.608 122.592 C 149.395 112.794 153.237 106.975 159.633 100.892 C 172.525 88.63 184.917 75.841 197.774 63.037 M 179.623 155.23 C 179.61 169.554 179.581 183.878 179.59 198.201 C 179.595 204.251 180.499 205.333 185.817 205.332 C 218.622 205.325 251.428 205.155 284.231 205.364 C 289.54 205.397 290.625 203.459 290.603 198.701 C 290.517 179.384 290.691 160.065 290.91 140.749 C 290.964 135.979 288.699 132.721 285.483 129.538 C 270.347 114.557 255.32 99.465 240.318 84.35 C 235.987 79.986 234.889 79.828 230.602 84.117 C 217.652 97.071 205.349 110.761 191.59 122.786 C 181.481 131.62 177.567 141.443 179.623 155.23 M 181.724 95.471 C 176.793 100.422 171.873 105.385 166.925 110.32 C 164.275 112.963 164.251 115.467 167.139 117.95 C 168.274 118.925 169.442 119.897 170.408 121.03 C 173.148 124.242 175.411 123.76 178.215 120.823 C 184.532 114.206 191.142 107.868 197.64 101.424 C 206.377 92.76 215.078 84.061 223.888 75.472 C 226.259 73.16 226.654 71.108 224.186 68.714 C 223.112 67.672 222.108 66.552 221.133 65.415 C 218.035 61.807 215.259 61.575 211.711 65.264 C 202.039 75.321 192.065 85.087 181.724 95.471 M 160.838 136.526 C 161.653 152.975 161.441 169.425 160.978 185.881 C 160.852 190.372 163.715 192.929 167.745 194.936 C 167.996 193.892 168.273 193.277 168.273 192.663 C 168.292 174.357 168.313 156.051 168.253 137.745 C 168.241 133.914 165.632 131.989 162.443 130.402 C 160.856 132.049 160.959 133.903 160.838 136.526 Z" style="fill: rgb(250, 198, 56);"/>
  <path fill="#000000" opacity="1.000000" stroke="none" d="M 111.704 280.886 C 111.696 268.223 111.626 256.06 111.706 243.897 C 111.738 238.969 110.362 235.424 104.803 234.735 C 103.185 234.534 101.403 233.926 101.629 231.642 C 101.803 229.877 103.221 229.613 104.575 229.644 C 120.704 230.015 136.933 228.071 152.944 230.633 C 165.278 232.606 172.246 240.088 173.867 251.061 C 175.62 262.934 170.5 273.358 159.9 279.074 C 151.358 283.679 142.398 285.2 132.941 282.131 C 131.712 281.732 130.49 280.969 128.416 281.929 C 127.925 288.941 127.336 296.298 128.761 303.628 C 129.375 306.787 131.945 308.179 134.991 308.519 C 136.776 308.719 138.495 309.048 138.55 311.184 C 138.609 313.448 136.704 313.789 135.023 313.798 C 125.028 313.852 115.033 313.853 105.038 313.774 C 103.357 313.76 101.554 313.327 101.604 311.036 C 101.647 309.063 103.169 308.727 104.746 308.563 C 109.991 308.016 111.672 304.585 111.695 299.881 C 111.725 293.716 111.703 287.551 111.704 280.886 M 128.034 263.333 C 128.039 265.832 128.04 268.331 128.051 270.83 C 128.057 272.203 128.269 273.421 129.624 274.249 C 136.483 278.442 149.202 275.155 153.114 268.083 C 156.822 261.38 156.407 254.234 154.631 247.215 C 152.721 239.67 147.87 236.269 140.058 236.127 C 138.226 236.094 136.393 236.087 134.56 236.105 C 128.718 236.163 128.074 236.807 128.043 242.855 C 128.009 249.352 128.034 255.85 128.034 263.333 Z"/>
  <path fill="#000000" opacity="1.000000" stroke="none" d="M 307.413 307.419 C 317.121 308.351 322.856 305.998 324.869 300.5 C 327.099 294.404 324.575 288.763 316.691 283.515 C 310.74 279.554 304.367 276.228 298.402 272.286 C 290.861 267.302 284.501 261.397 284.108 251.367 C 283.836 244.418 286.497 238.885 292.128 235.142 C 304.62 226.84 317.939 226.247 331.554 232.088 C 336.25 234.102 340.063 246.738 337.445 251.127 C 335.787 253.907 333.778 253.377 331.928 251.009 C 329.165 247.473 326.501 243.832 323.459 240.547 C 320.051 236.867 315.778 234.815 310.541 235.212 C 302.223 235.842 297.45 243.979 301.059 251.531 C 303.41 256.451 307.782 259.234 312.238 261.883 C 318.526 265.621 325.346 268.423 331.272 272.808 C 335.226 275.734 338.463 279.158 340.409 283.781 C 344.636 293.828 341.858 303.857 332.364 309.248 C 317.514 317.68 302.42 316.53 287.577 308.899 C 283.041 306.567 283.092 301.794 282.366 297.615 C 281.973 295.348 282.224 292.965 282.229 290.635 C 282.233 288.771 282.241 286.841 284.549 286.209 C 286.744 285.608 287.399 287.468 288.306 288.769 C 290.397 291.77 292.273 294.93 294.482 297.84 C 297.749 302.145 301.674 305.698 307.413 307.419 Z"/>
  <path fill="#000000" opacity="1.000000" stroke="none" d="M 211.695 248.337 C 205.082 263.787 205.824 278.911 212.317 293.664 C 219.967 311.047 238.391 313.135 250.277 298.298 C 252.785 295.168 254.951 291.831 256.657 288.19 C 257.345 286.721 257.905 284.801 260.101 285.285 C 261.999 285.704 263.254 287.069 263.82 288.97 C 265.142 293.411 261.04 305.461 257.317 308.101 C 242.951 318.288 217.604 317.544 203.708 306.53 C 193.564 298.491 189.658 287.655 189.089 275.072 C 188.202 255.458 199.081 237.511 216.645 231.354 C 229.454 226.864 242.225 228.086 254.464 233.898 C 259.219 236.156 263.779 246.138 262.758 251.465 C 262.389 253.389 261.259 254.812 259.294 255.343 C 257.222 255.902 256.266 254.377 255.352 252.99 C 252.202 248.209 248.388 244.045 243.672 240.806 C 230.855 232.003 219.796 234.537 211.695 248.337 Z"/>
  <path opacity="1.000000" stroke="none" d="M 267.535 42.564 C 274.228 38.919 280.735 38.055 287.376 41.519 C 295.058 45.526 299.118 53.339 297.508 61.87 C 296.86 65.306 297.794 67.589 300.147 69.832 C 304.361 73.847 308.417 78.027 312.588 82.089 C 315.052 84.489 317.057 87.087 316.744 90.762 C 316.543 93.118 317.451 96.367 314.02 96.886 C 311.119 97.326 308.335 97.752 305.594 94.587 C 300.317 88.495 294.234 83.04 287.333 78.685 C 285.349 77.433 283.101 78.202 280.971 78.286 C 269.393 78.743 261.659 73 259.427 61.865 C 257.831 53.902 260.886 47.596 267.535 42.564 M 277.34 55.091 C 277.839 52.39 276.257 51.093 273.987 50.59 C 272.59 50.281 271.458 51.218 270.889 52.502 C 270.141 54.192 270.523 55.82 272.005 56.866 C 273.979 58.26 275.694 57.547 277.34 55.091 Z" style="fill: rgb(250, 198, 56);"/>
  <path opacity="1.000000" stroke="none" d="M 243.926 135.224 C 248.754 135.215 253.092 135.369 257.411 135.146 C 260.627 134.98 262.059 136.213 262.048 139.389 C 262.005 152.711 261.981 166.034 261.983 179.357 C 261.984 182.518 260.458 183.801 257.349 183.793 C 244.026 183.76 230.703 183.785 217.38 183.864 C 214.397 183.881 213.04 182.389 213.027 179.632 C 212.963 166.145 212.978 152.658 212.946 139.171 C 212.938 135.692 215.141 135.178 217.947 135.194 C 226.441 135.244 234.934 135.22 243.926 135.224 M 239.419 172.509 C 241.581 172.499 243.75 172.375 245.903 172.505 C 249.47 172.721 251.052 171.373 250.888 167.598 C 250.651 162.12 250.675 156.62 250.858 151.138 C 250.993 147.128 249.114 145.748 245.412 146.019 C 242.595 146.226 239.774 146.493 236.954 146.497 C 223.709 146.519 223.318 146.525 224.502 159.885 C 225.7 173.399 222.122 172.458 237.439 172.506 C 237.772 172.507 238.105 172.507 239.419 172.509 Z" style="fill: rgb(250, 198, 56);"/>
</svg>